<?xml version="1.0" standalone="no"?>
<!DOCTYPE svg PUBLIC "-//W3C//DTD SVG 20010904//EN"
 "http://www.w3.org/TR/2001/REC-SVG-20010904/DTD/svg10.dtd">
<svg version="1.0" xmlns="http://www.w3.org/2000/svg"
 width="333.000000pt" height="333.000000pt" viewBox="0 0 333.000000 333.000000"
 preserveAspectRatio="xMidYMid meet">
<metadata>
Created by potrace 1.11, written by Peter Selinger 2001-2013
</metadata>
<g transform="translate(0.000000,333.000000) scale(0.100000,-0.100000)"
fill="#000000" stroke="none">
<path d="M1407 3319 c-802 -93 -1406 -771 -1407 -1579 0 -240 58 -479 170
-705 218 -437 617 -741 1110 -846 153 -33 447 -33 607 -1 646 130 1139 630
1259 1277 28 150 26 442 -5 585 -68 321 -213 591 -436 815 -341 341 -823 510
-1298 454z m404 -235 c568 -95 1015 -543 1115 -1117 25 -141 15 -407 -20 -545
-125 -496 -502 -873 -997 -998 -141 -35 -397 -45 -545 -20 -572 97 -1023 547
-1118 1115 -20 120 -21 332 -1 447 98 572 540 1016 1110 1118 110 20 339 20
456 0z"/>
<path d="M880 2553 c-19 -10 -45 -36 -57 -58 l-23 -40 0 -736 c0 -717 1 -737
20 -761 27 -36 72 -51 126 -45 57 6 95 33 111 78 9 24 12 178 13 544 l2 510
202 -409 c226 -458 232 -466 318 -466 47 0 54 3 87 39 24 26 102 174 231 438
l195 399 5 -532 c5 -514 6 -533 25 -554 45 -50 114 -63 180 -36 68 29 65 -4
65 799 l0 724 -23 43 c-32 61 -75 82 -159 78 -77 -4 -108 -21 -149 -84 -14
-21 -95 -183 -179 -359 -84 -176 -182 -378 -217 -450 l-63 -129 -120 247
c-348 716 -346 713 -385 743 -49 37 -150 45 -205 17z"/>
</g>
</svg>
